<svg width="446.13137" height="710.02738" xmlns="http://www.w3.org/2000/svg" data-name="Layer 1" stroke="null">
 <g stroke="null">
  <title stroke="null">Layer 1</title>
  <ellipse fill="#0061ff" cx="343.56562" cy="450.98624" id="svg_39" rx="311.49994" ry="352.00001" stroke="null"/>
  <path d="m254.62269,184.74951a6.17757,6.17757 0 0 1 6.18,-6.18l24.38,0a6.17975,6.17975 0 0 1 6.19,6.18l0,1.69l56.08,0l0,-85.3l-151.54,0l0,85.3l58.71,0l0,-1.69z" fill="#1e1e26" id="svg_1" stroke="null"/>
  <polygon points="396.213 101.14 355.323 101.14 355.323 186.44 390.043 186.44 396.213 101.14" fill="#1e1e26" id="svg_2" stroke="null"/>
  <path d="m347.45027,0l0,93.26l-49.27,0a102.28415,102.28415 0 0 1 -101.87,-93.26l151.14,0z" fill="#1e1e26" id="svg_3" stroke="null"/>
  <path d="m402.30031,17.10999l-5.52,76.15l-41.46,0l0,-93.26l31.08,0a15.95038,15.95038 0 0 1 15.9,17.11z" fill="#1e1e26" id="svg_4" stroke="null"/>
  <path d="m388.13026,212.69l-6.61,124.34l-0.05,0.9l-2.13,40.09a35.26268,35.26268 0 0 1 -35.24,33.98l-143.53,0a35.09646,35.09646 0 0 1 -16.84,-4.28c-0.09,-0.05 -0.18,-0.1 -0.26,-0.14c-0.85,-0.47 -1.67,-0.98 -2.47,-1.51c-0.2,-0.14 -0.4,-0.27 -0.6,-0.41a35.21442,35.21442 0 0 1 -15.07,-27.64l-8.79,-165.33l231.59,0z" fill="#1e1e26" id="svg_5" stroke="null"/>
  <path d="m143.4593,31.9009l4.44336,61.35862l40.13,0l0,-93.25952l-15.04284,0q-0.19987,0 -0.40008,0.00179a29.66566,29.66566 0 0 0 -29.13044,31.89911z" fill="#1e1e26" id="svg_6" stroke="null"/>
  <polygon points="154.643 186.44 188.033 186.44 188.033 101.14 148.473 101.14 154.643 186.44" fill="#1e1e26" id="svg_7" stroke="null"/>
  <path d="m347.21028,9l0.24,0l0,82l-0.24,0a41,41 0 0 1 0,-82z" fill="#0061ff" id="svg_8" stroke="null"/>
  <path d="m389.21028,50a41.02622,41.02622 0 0 1 -32.89,40.2l0,-80.4a41.02623,41.02623 0 0 1 32.89,40.2z" fill="#0061ff" id="svg_9" stroke="null"/>
  <path d="m185.11217,219.60292c5.67343,0.2666 17.40775,3.084 30.1232,6.72644c12.70782,3.64606 26.49182,8.0943 40.10028,12.49411q35.73267,11.54365 71.4621,23.08q4.91208,1.58358 9.85113,3.19522c1.26068,1.64907 2.51532,3.31469 3.74573,4.99679c-2.89435,-1.02316 -5.80029,-2.013 -8.69751,-2.95636c-12.37842,-4.02258 -23.11981,-6.67554 -35.13324,-10.33536c-18.48822,-5.62728 -37.99249,-13.0176 -56.909,-19.8995c-18.91461,-6.8874 -40.61627,-14.30098 -54.54269,-17.30134z" fill="#f0f0f0" opacity="0.3" id="svg_10" stroke="null"/>
  <circle cx="268.29578" cy="47.56029" r="2.86347" fill="#fff" id="svg_11" stroke="null"/>
  <circle cx="370.29578" cy="125.56029" r="2.86347" fill="#fff" id="svg_12" stroke="null"/>
  <circle cx="282.29578" cy="390.56029" r="1.91449" fill="#fff" id="svg_13" stroke="null"/>
  <circle cx="347.29578" cy="246.56029" r="1.91449" fill="#fff" id="svg_14" stroke="null"/>
  <circle cx="237.29578" cy="137.56029" r="1.91449" fill="#fff" id="svg_15" stroke="null"/>
  <circle cx="209.29578" cy="294.56029" r="1.91449" fill="#fff" id="svg_16" stroke="null"/>
  <path d="m299.44136,317.56696c-0.67035,-0.43921 -1.36383,-0.88135 -2.07471,-1.30322c-3.3172,-1.96485 -7.00421,-3.49634 -10.60748,-2.44739c-3.77661,1.098 -6.18939,4.69256 -8.22363,8.0589a402.84,402.84 0 0 0 -28.56592,57.01342c12.68506,-10.57861 15.95892,-28.99359 27.26562,-41.03717c1.91291,-2.03424 4.34589,-3.98468 7.13428,-3.86041c2.24811,0.09821 4.17828,1.5141 6.16052,2.57452c5.22138,2.79712 11.33564,3.2594 17.24475,3.66688q12.26744,0.848 24.53791,1.69323l0.01153,-0.13q-8.69311,-7.1791 -17.7995,-13.80622q-7.41596,-5.40343 -15.08337,-10.42254z" fill="#f2f2f2" id="svg_17" stroke="null"/>
  <path d="m356.16029,362.51001a194.95528,194.95528 0 0 0 -28.91,-30.83c-0.86,-0.74 -1.73,-1.47 -2.61,-2.2q-2.82,-2.325 -5.71,-4.55q-6.11993,-4.68 -12.56,-8.86q-3.86992,-2.50506 -7.85,-4.83c-0.67,-0.39 -1.34,-0.78 -2.02,-1.16c-1.69,-0.95 -3.38,-1.9 -5.11,-2.78a12.452,12.452 0 0 0 -5.42,-1.68c-6.57,-0.1 -9.98,7.34 -12.32,12.35q-1.095,2.37 -2.23,4.72q-4.26,8.925 -8.86,17.68q-2.83494,5.415 -5.79,10.76q-4.2,7.575 -8.63,15q-5.31,8.91 -10.95,17.61c-6.47,9.97 -12.9,19.11 -19.8,28.26l1.04,0q11.535,-15.525 21.91,-31.82q9,-14.13 17.12,-28.79q3.855,-6.975 7.51,-14.06006q2.82,-5.505 5.53,-11.05c0.52,-1.06 1.02,-2.12 1.52,-3.19c1.18,-2.51 2.33,-5.03 3.57,-7.5c1.41,-2.81 3.12,-5.77 5.72,-7.66a7.831,7.831 0 0 1 4.06,-1.57a11.43058,11.43058 0 0 1 5.89,1.69q3.525,1.845 6.98,3.84a190.05338,190.05338 0 0 1 20.18,13.55q5.18994,3.99 10.09,8.3a193.59389,193.59389 0 0 1 30.27,33.6c0.27,0.38 0.9,0.02 0.63,-0.37q-1.58998,-2.24998 -3.25,-4.45994z" fill="#f2f2f2" id="svg_18" stroke="null"/>
  <path d="m376.05031,332.76996q-5.61007,-4.17 -11.62006,-7.76c-2,-1.2 -4.02,-2.34 -6.08,-3.44c-0.62,-0.33 -1.25,-0.65 -1.88,-0.96a28.99871,28.99871 0 0 0 -4.48,-1.82a15.97274,15.97274 0 0 0 -6.76,-0.67a17.5661,17.5661 0 0 0 -6.24,2.16c-4.09,2.29 -7.26,5.82 -10.34,9.27a0.37053,0.37053 0 0 0 0.01,0.51a0.32009,0.32009 0 0 0 0.5,0c0.39,-0.42 0.76,-0.85 1.15,-1.27c3.03,-3.36 6.28,-6.67 10.45,-8.59a14.99783,14.99783 0 0 1 6.35,-1.47a18.05035,18.05035 0 0 1 6.59,1.43c0.99,0.4 1.96,0.85 2.92,1.33c1.09,0.55 2.17005,1.14 3.23005,1.73q3.015,1.665 5.94,3.47q5.83492,3.6 11.29,7.76c1.49,1.13 2.95,2.28 4.39,3.48l0.05,-0.9q-2.68499,-2.20494 -5.46999,-4.26z" fill="#f2f2f2" id="svg_19" stroke="null"/>
  <path d="m199.40028,382.70001q6.39,-8.01 12.89,-15.94c1.04,-1.28 2.09,-2.57 3.15,-3.84a26.927,26.927 0 0 1 2.78,-2.97a10.003,10.003 0 0 1 3.39,-2.1a7.63311,7.63311 0 0 1 4.34,-0.06a50.35376,50.35376 0 0 1 4.8,1.66l4.87,1.78l9.79,3.58a0.29429,0.29429 0 0 0 0.36,-0.09a0.39327,0.39327 0 0 0 -0.17,-0.61l-2.46,-0.91l-9.86,-3.6c-1.64,-0.6 -3.27,-1.21 -4.91,-1.8a13.36447,13.36447 0 0 0 -4.74,-1.04c-2.78,0.05 -5.1,1.75 -6.96,3.67c-1.01,1.05 -1.93,2.18 -2.85,3.31c-1.09,1.33 -2.19,2.67 -3.28,4.01q-6.57,8.04 -13.05,16.17t-12.88,16.31q-2.115,2.715 -4.21,5.43c0.2,0.14 0.4,0.27 0.6,0.41q2.82,-3.66 5.68,-7.3q6.315,-8.06996 12.72,-16.07z" fill="#f2f2f2" id="svg_20" stroke="null"/>
  <path d="m342.04643,324.41743c-3.63421,1.86786 -6.3919,5.10468 -9.91723,7.17066a227.15285,227.15285 0 0 1 25.84323,-6.03166a15.81321,15.81321 0 0 0 -15.926,-1.139z" fill="#f2f2f2" id="svg_21" stroke="null"/>
  <path d="m357.97249,325.55643c0.34613,0.24182 0.6831,0.49744 1.0072,0.77008l-0.95825,-0.77893l-0.04895,0.00885z" fill="#f2f2f2" id="svg_22" stroke="null"/>
  <path d="m222.03343,361.96552a8.15325,8.15325 0 0 0 -3.44879,2.87927q-17.94177,21.83963 -35.88361,43.67932a152.72765,152.72765 0 0 0 40.6789,-46.50549l-1.3465,-0.0531z" fill="#f2f2f2" id="svg_23" stroke="null"/>
  <path d="m99.86143,396.60697c0.00434,0.02573 0.0087,0.04288 0.01306,0.06855c0.0305,0.17993 0.061,0.3427 0.09586,0.52258l0,0.00857q2.22852,12.31073 4.89711,24.21021l336.01856,-0.71965q2.70561,-12.14358 4.9668,-24.73278a0.28407,0.28407 0 0 0 0.00873,-0.05992l-346.00012,0.70244z" fill="#3f3d49" id="svg_24" stroke="null"/>
  <path d="m117.00051,306.48336l23.381,-0.70194c6.31509,13.88972 -1.41489,43.93282 -1.41489,43.93282l-8.69327,61.80419a10.3272,10.3272 0 1 1 -16.8672,5.90427l-5.82416,-67.79127l9.41852,-43.14807z" fill="#e0ab8b" id="svg_25" stroke="null"/>
  <path d="m116.98836,311.83631l4.9029,-33.77071l13.00861,-12.50364a18.9905,18.9905 0 0 1 19.62153,-4.09986l0,0a18.94564,18.94564 0 0 1 11.54546,23.14733c-4.15794,13.95678 -11.20471,31.11907 -21.16239,33.62391l-0.10092,0.02542l-27.81519,-6.42245z" fill="#0042a5" id="svg_26" stroke="null"/>
  <polygon points="214.855 693.94 227.612 693.94 233.68 644.736 214.853 644.737 214.855 693.94" fill="#e0ab8b" id="svg_27" stroke="null"/>
  <path d="m211.60591,689.7736l0,16.53l41.13,0l0,-0.52a16.01266,16.01266 0 0 0 -16.01,-16.01l-7.52,-5.7l-0.39,0.16l-13.62,5.54l-3.59,0z" fill="#1e1e26" id="svg_28" stroke="null"/>
  <polygon points="127.855 693.94 140.612 693.94 146.68 644.736 127.853 644.737 127.855 693.94" fill="#e0ab8b" id="svg_29" stroke="null"/>
  <path d="m124.60591,688.7736l0,16.53l41.13,0l0,-0.52a16.01266,16.01266 0 0 0 -16.01,-16.01l-7.52,-5.7l-0.39,0.16l-13.62,5.54l-3.59,0z" fill="#1e1e26" id="svg_30" stroke="null"/>
  <path d="m223.39775,391.77474l-88.00632,-5.15214s-18.1811,34.3774 -12.1811,59.3774s8.08414,74.91829 4.54207,78.95915s-4.54207,-2.95915 -0.54207,5.04085c4.045,8.08992 3,-2 3,5a26.51116,26.51116 0 0 1 -3.9687,12.99831l0,120.925l30.90451,-1.98687s8.34765,-4.07822 1.20592,-11.00735s-11.71413,-1.48032 -7.42793,-10.20473s6.2862,1.27559 4.2862,-8.72441s23.15637,-160.12452 23.15637,-160.12452s9.64854,31.02671 13.84358,59.12453c7.22281,48.37737 11.06985,105.75984 13.94886,108.759c4.55114,4.741 7.55114,-1.259 4.55114,4.741s-9.71654,4.71654 -5.35827,8.35827s4.35827,-1.35827 4.35827,3.64173a36.43113,36.43113 0 0 0 1.34487,9.42336l25.51809,-1.71324l-1.363,-130.21012l-11.81249,-147.22522z" fill="#1e1e26" id="svg_31" stroke="null"/>
  <path d="m198.36284,237.39565l-28.21979,-3.35822l-7.226,15.16731s-39.58863,21.36951 -38.14768,26.58239s12.44094,27.21288 9.44094,33.21288s-10.811,7.99572 -4.90551,13.49786s9.90551,7.50214 7.90551,12.50214s-1,23 -1,23s-11.61192,21.31728 -7.806,25.65864s6.806,0.082 3.806,6.21168s-26.07874,13.14929 -4.03937,13.63949s27.03937,-13.50981 44.03937,-2.50981s50.6378,0.70866 50.6378,0.70866s1.95318,-11.70866 1.15769,-18.70866s-2.65648,-3.52439 -1.226,-15.26219s3.77227,-39.5578 3.77227,-39.5578s12.98917,-57.60171 9.65823,-63.18s-32.63779,-12.96063 -32.63779,-12.96063l-5.20967,-14.64374z" fill="#065bdb" id="svg_32" stroke="null"/>
  <path d="m217.72323,321.92268l20.20827,-11.78084c12.18083,9.18869 19.73412,39.27671 19.73412,39.27671l21.87242,58.45452a10.32719,10.32719 0 1 1 -12.001,13.24158l-37.48671,-56.78317l-12.3271,-42.4088z" fill="#e0ab8b" id="svg_33" stroke="null"/>
  <path d="m219.38987,327.10928l-11.81716,-32.01335l5.45956,-17.19761a18.99055,18.99055 0 0 1 15.28263,-12.97131l0,0c9.8648,-1.40086 10.73563,2.05916 12.80356,11.806c3.01084,14.24833 4.24732,21.67857 5.85411,42.66745l-0.07654,0.07052l-27.50616,7.6383z" fill="#0042a5" id="svg_34" stroke="null"/>
  <circle cx="187.06192" cy="201.89836" r="26.63173" fill="#e0ab8b" id="svg_35" stroke="null"/>
  <path d="m181.2457,227.77904c7.47823,-1.59494 7.80547,-3.70436 15.2837,-5.2993c2.38114,-0.50784 5.14878,-1.34267 5.93076,-3.64837c0.557,-1.64219 -0.15981,-3.456 -1.16253,-4.87073a45.6604,45.6604 0 0 1 -3.13436,-4.14334a8.08891,8.08891 0 0 1 6.00773,-11.9109c2.30692,-0.31133 4.64978,0.37989 6.96791,0.16752c3.17916,-0.29125 8.24963,-11.86906 6.30777,-14.40305c-1.89022,-2.46659 -5.08144,-4.01123 -6.06763,-6.95816c-0.645,-1.92743 -0.18041,-4.04067 -0.42674,-6.05818c-0.36524,-2.99142 -6.67613,5.03218 -5.77224,2.15728c2.21729,-7.05226 -30.99867,-9.34984 -34.78386,-0.33561c-1.41467,3.369 -4.93682,3.78771 -7.71837,6.15723c-1.823,1.553 -6.22954,6.57334 -6.94045,9.33763a20.20814,20.20814 0 0 0 -0.01377,8.4971c2.30166,13.11389 6.45869,24.81107 18.41794,30.66325" fill="#23232d" id="svg_36" stroke="null"/>
 </g>

</svg>